<?xml version="1.0" encoding="utf-8"?>
<!-- Generator: Adobe Illustrator 25.4.1, SVG Export Plug-In . SVG Version: 6.00 Build 0)  -->
<svg version="1.1" xmlns="http://www.w3.org/2000/svg" xmlns:xlink="http://www.w3.org/1999/xlink" x="0px" y="0px"
	 viewBox="0 0 748.46 283.46" style="enable-background:new 0 0 748.46 283.46;" xml:space="preserve">
<style type="text/css">
	.st0{display:none;}
	.st1{fill:#FFFFFF;stroke:#1D1D1B;}
	.st2{fill-rule:evenodd;clip-rule:evenodd;}
</style>
<g id="Hintergrund" class="st0">
</g>
<g id="Hilfslinien_anzeigen" class="st0">
</g>
<g id="Vordergrund">
	<rect x="15.54" y="23.84" class="st1" width="246.98" height="246.98"/>
	<g>
		<g>
			<g>
				<polygon class="st2" points="747.4,124.99 747.4,118.21 712.45,118.21 712.45,124.99 726.15,124.99 726.15,167.97 733.7,167.97 
					733.7,124.99 				"/>
				<path class="st2" d="M700.43,151.55h-15.31l7.76-22.09L700.43,151.55z M713.98,167.97l-18.24-49.76h-6.08l-18.24,49.76h8.04
					l3.42-9.99h19.64l3.42,9.99H713.98z"/>
				<polygon class="st2" points="672.97,124.99 672.97,118.21 638.03,118.21 638.03,124.99 651.73,124.99 651.73,167.97 
					659.28,167.97 659.28,124.99 				"/>
				<rect x="621.88" y="118.21" class="st2" width="7.55" height="49.76"/>
				<path class="st2" d="M611.75,153.78c0-4.26-1.33-7.83-4.05-10.2c-2.09-1.89-4.68-3-9.29-3.7l-5.66-0.84
					c-2.31-0.35-4.33-1.19-5.59-2.31c-1.33-1.19-1.88-2.79-1.88-4.61c0-4.4,3.21-7.76,9.08-7.76c4.19,0,7.76,0.91,10.83,3.84
					l4.82-4.75c-4.26-3.99-8.87-5.66-15.44-5.66c-10.34,0-16.63,5.94-16.63,14.61c0,4.06,1.19,7.2,3.63,9.51
					c2.17,2.03,5.38,3.42,9.44,3.98l5.87,0.84c2.94,0.42,4.19,0.91,5.45,2.1c1.33,1.19,1.96,3,1.96,5.17
					c0,4.82-3.78,7.62-10.28,7.62c-5.1,0-9.08-1.12-12.72-4.75l-5.03,4.96c4.75,4.82,10.13,6.57,17.61,6.57
					C604.28,168.39,611.75,162.94,611.75,153.78z"/>
				<path class="st2" d="M562.07,132.81c0,4.89-3.42,7.76-8.45,7.76h-11.18v-15.59h11.18C558.65,124.99,562.07,127.92,562.07,132.81
					z M571.16,167.97l-11.46-22.02c5.59-1.54,9.92-6.08,9.92-13.21c0-8.46-6.01-14.54-15.44-14.54h-19.29v49.76h7.55V147h9.44
					l10.48,20.97H571.16z"/>
				<polygon class="st2" points="524.56,167.97 524.56,161.19 500.31,161.19 500.31,146.23 521,146.23 521,139.53 500.31,139.53 
					500.31,124.99 524.56,124.99 524.56,118.21 492.76,118.21 492.76,167.97 				"/>
				<polygon class="st2" points="485.91,118.21 477.94,118.21 466.48,154.41 455.02,118.21 447.19,118.21 463.55,167.97 
					469.42,167.97 				"/>
				<rect x="432.8" y="118.21" class="st2" width="7.55" height="49.76"/>
				<polygon class="st2" points="419.8,167.97 419.8,118.21 412.25,118.21 412.25,153.15 389.26,118.21 382.34,118.21 
					382.34,167.97 389.89,167.97 389.89,132.95 412.88,167.97 				"/>
				<path class="st2" d="M370.12,151.2v-32.99h-7.55v32.64c0,6.64-4.12,10.76-10.34,10.76c-6.22,0-10.27-4.12-10.27-10.76v-32.64
					h-7.55v32.99c0,10.28,7.69,17.19,17.82,17.19C362.36,168.39,370.12,161.47,370.12,151.2z"/>
			</g>
			<g>
				<rect x="681.76" y="105.49" class="st2" width="6.43" height="7.55"/>
				<rect x="696.86" y="105.49" class="st2" width="6.43" height="7.55"/>
			</g>
		</g>
		<g>
			<polygon class="st2" points="703.66,78.29 703.66,28.53 696.11,28.53 696.11,49.78 675.91,49.78 675.91,28.53 668.36,28.53 
				668.36,78.29 675.91,78.29 675.91,56.56 696.11,56.56 696.11,78.29 			"/>
			<path class="st2" d="M658.3,63.41h-7.61c-1.19,5.03-4.61,8.52-10.13,8.52c-2.93,0-5.59-1.12-7.34-3
				c-2.45-2.66-3.01-5.52-3.01-15.52s0.56-12.86,3.01-15.52c1.75-1.89,4.4-3,7.34-3c5.52,0,8.87,3.49,10.06,8.53h7.69
				c-1.74-9.93-8.6-15.31-17.75-15.31c-5.17,0-9.65,1.89-13.07,5.31c-4.89,4.89-4.82,10.41-4.82,19.99c0,9.58-0.07,15.1,4.82,19.99
				c3.43,3.43,7.9,5.31,13.07,5.31C649.56,78.71,656.62,73.33,658.3,63.41z"/>
			<path class="st2" d="M614.34,64.11c0-4.26-1.33-7.83-4.05-10.2c-2.1-1.89-4.68-3-9.3-3.7l-5.66-0.84
				c-2.3-0.35-4.34-1.19-5.59-2.31c-1.33-1.19-1.88-2.79-1.88-4.61c0-4.4,3.22-7.76,9.08-7.76c4.19,0,7.76,0.91,10.84,3.84
				l4.82-4.75c-4.27-3.99-8.87-5.66-15.45-5.66c-10.34,0-16.63,5.94-16.63,14.61c0,4.05,1.19,7.2,3.64,9.51
				c2.17,2.03,5.38,3.42,9.44,3.99l5.87,0.84c2.94,0.42,4.19,0.91,5.45,2.1c1.33,1.19,1.96,3,1.96,5.17c0,4.82-3.77,7.62-10.27,7.62
				c-5.1,0-9.08-1.12-12.72-4.75l-5.03,4.96c4.75,4.82,10.14,6.57,17.61,6.57C606.87,78.71,614.34,73.26,614.34,64.11z"/>
			<rect x="562.7" y="28.53" class="st2" width="7.55" height="49.76"/>
			<polygon class="st2" points="549.71,78.29 549.71,28.53 542.16,28.53 542.16,63.48 519.16,28.53 512.24,28.53 512.24,78.29 
				519.79,78.29 519.79,43.28 542.79,78.29 			"/>
			<polygon class="st2" points="499.24,78.29 499.24,28.53 491.7,28.53 491.7,49.78 471.5,49.78 471.5,28.53 463.95,28.53 
				463.95,78.29 471.5,78.29 471.5,56.56 491.7,56.56 491.7,78.29 			"/>
			<path class="st2" d="M453.89,63.41h-7.62c-1.19,5.03-4.61,8.52-10.13,8.52c-2.93,0-5.59-1.12-7.34-3c-2.45-2.66-3-5.52-3-15.52
				s0.56-12.86,3-15.52c1.75-1.89,4.4-3,7.34-3c5.52,0,8.88,3.49,10.06,8.53h7.69c-1.75-9.93-8.6-15.31-17.75-15.31
				c-5.17,0-9.64,1.89-13.07,5.31c-4.89,4.89-4.82,10.41-4.82,19.99c0,9.58-0.07,15.1,4.82,19.99c3.42,3.43,7.9,5.31,13.07,5.31
				C445.15,78.71,452.21,73.33,453.89,63.41z"/>
			<polygon class="st2" points="409.73,78.29 409.73,71.52 385.48,71.52 385.48,56.56 406.17,56.56 406.17,49.85 385.48,49.85 
				385.48,35.31 409.73,35.31 409.73,28.53 377.93,28.53 377.93,78.29 			"/>
			<polygon class="st2" points="369.35,35.31 369.35,28.53 334.41,28.53 334.41,35.31 348.1,35.31 348.1,78.29 355.65,78.29 
				355.65,35.31 			"/>
			<polygon class="st2" points="748.46,78.29 748.46,71.52 724.21,71.52 724.21,56.56 744.89,56.56 744.89,49.85 724.21,49.85 
				724.21,35.31 748.46,35.31 748.46,28.53 716.66,28.53 716.66,78.29 			"/>
		</g>
		<g>
			<polygon class="st2" points="393.74,204.53 385.77,204.53 377.11,240.11 367.11,204.53 361.03,204.53 351.04,240.11 
				342.37,204.53 334.41,204.53 347.41,254.29 353.97,254.29 364.04,219.42 374.17,254.29 380.74,254.29 			"/>
			<polygon class="st2" points="501.13,254.29 501.13,204.53 493.59,204.53 493.59,239.48 470.59,204.53 463.67,204.53 
				463.67,254.29 471.22,254.29 471.22,219.28 494.22,254.29 			"/>
			<polygon class="st2" points="453.35,254.29 453.35,247.52 429.1,247.52 429.1,232.56 449.78,232.56 449.78,225.85 429.1,225.85 
				429.1,211.31 453.35,211.31 453.35,204.53 421.55,204.53 421.55,254.29 			"/>
			<rect x="401" y="204.53" class="st2" width="7.55" height="49.76"/>
		</g>
		<path class="st2" d="M202.75,138.27c0.46-0.08,0.8-0.14,1.25-0.25c11.39-2.89,19.88-13.87,19.88-26.08l-0.26-83.47h30.87v83.91
			c0.03,29.16-22.11,53.41-50.49,56.41l-1.25,0.13L202.75,138.27z M193.57,168.92l-1.6-0.13c-28.37-2.96-50.31-26.94-50.31-56.1
			V28.48h30.67l-0.05,83.47c0,12.21,8.49,23.19,19.88,26.08c0.5,0.12,0.89,0.2,1.4,0.29L193.57,168.92z M118.64,254.45v-49.89h-9.74
			v49.89H118.64z M184.86,254.45v-8.69h-23.12v-12.12h19.69v-8.69h-19.69v-11.7h23.12v-8.69H152v49.89H184.86z M254.63,254.45
			v-49.89h-9.74v30.55l-19.76-30.55h-8.69v49.89h9.74v-30.62l19.76,30.62H254.63z M85.72,204.56H75.56l-7.78,31.46l-9.11-31.46
			h-7.29l-9.11,31.46l-7.71-31.46H24.42l13.31,49.89h8.13l9.18-30.27l9.18,30.27h8.13L85.72,204.56z M21.79,28.48h105.86v30.27
			H21.79V28.48z M60.1,168.12V67.55h30.27v100.58H60.1z M255.11,0c15.65,0,28.29,12.7,28.29,28.36l0.06,226.74
			c0,15.66-12.74,28.36-28.39,28.36H28.34C12.7,283.46,0,270.77,0,255.11L0.02,28.36C0.02,12.7,12.68,0,28.32,0H255.11z"/>
	</g>
</g>
</svg>
